<?xml version="1.0" standalone="no"?>
<!DOCTYPE svg PUBLIC "-//W3C//DTD SVG 20010904//EN"
 "http://www.w3.org/TR/2001/REC-SVG-20010904/DTD/svg10.dtd">
<svg version="1.0" xmlns="http://www.w3.org/2000/svg"
 width="176.000000pt" height="176.000000pt" viewBox="0 0 176.000000 176.000000"
 preserveAspectRatio="xMidYMid meet">

<g transform="translate(0.000000,176.000000) scale(0.100000,-0.100000)"
fill="#000000" stroke="none">
<path d="M753 1498 l6 -38 -30 15 c-32 17 -35 12 -14 -25 15 -27 19 -122 6
-155 -6 -15 -9 -11 -13 20 -3 22 -13 56 -21 75 l-15 35 -2 -55 c-2 -81 -15
-106 -23 -46 -4 27 -7 65 -7 85 l-1 36 -25 -30 c-25 -29 -25 -29 -19 -5 l7 25
-24 -22 c-48 -45 -45 -14 5 51 29 37 29 38 6 31 -32 -10 -151 -88 -169 -111
-14 -18 -14 -18 3 -5 14 11 13 4 -8 -40 -14 -30 -25 -70 -26 -89 l-2 -35 -7
40 c-6 35 -7 32 -7 -25 -1 -36 2 -78 6 -95 5 -27 10 -30 46 -30 22 -1 52 -5
68 -9 33 -10 37 6 6 28 -17 12 -20 20 -14 48 11 48 39 99 72 131 l30 28 -1
-78 c-1 -45 5 -92 12 -110 l14 -31 36 15 c32 13 45 13 117 0 44 -9 123 -19
175 -22 52 -4 97 -9 99 -11 2 -2 -40 -4 -95 -4 -91 -1 -97 -2 -74 -15 29 -16
93 -19 119 -6 26 14 37 1 45 -54 9 -68 39 -168 53 -172 5 -2 13 9 16 24 8 40
38 74 90 103 45 23 46 24 66 5 26 -22 27 -66 5 -141 -22 -76 -77 -115 -113
-81 -16 14 -15 10 23 -98 13 -38 27 -95 31 -125 7 -54 5 -57 -25 -87 -21 -20
-51 -36 -84 -44 -28 -6 -68 -20 -88 -31 -42 -20 -50 -12 -17 18 27 24 84 103
93 129 4 11 -28 -14 -71 -56 -134 -129 -219 -180 -302 -181 -38 -1 -48 4 -73
31 -35 40 -32 55 13 59 19 2 41 10 50 18 20 18 31 67 22 102 -6 24 -7 23 -22
-19 -20 -54 -57 -72 -100 -48 l-27 16 19 -55 c30 -89 15 -104 -133 -141 -47
-12 -117 -33 -155 -47 -64 -24 -125 -42 -198 -58 -44 -10 -107 -73 -107 -107
l0 -29 318 0 319 0 7 98 c9 145 4 137 95 137 l77 0 -44 -34 c-43 -33 -44 -35
-38 -78 4 -29 1 -56 -9 -80 -8 -19 -15 -37 -15 -39 0 -2 34 -4 76 -4 l77 0 -7
48 c-6 45 -4 49 24 70 16 13 30 28 30 36 0 7 -17 31 -38 54 -22 23 -35 42 -31
42 4 0 44 22 89 50 45 27 114 62 153 77 47 19 87 44 121 75 27 26 50 47 51 45
1 -1 9 -13 18 -26 16 -24 16 -25 -97 -141 -99 -102 -219 -259 -239 -312 -6
-17 18 -18 409 -18 l415 0 -3 102 -3 102 -50 11 c-27 6 -61 18 -75 27 -14 8
-54 25 -90 38 -87 30 -146 90 -180 183 -6 16 -20 31 -31 34 -20 6 -21 11 -16
87 5 78 33 176 73 259 15 31 19 35 25 20 5 -13 8 -9 14 20 8 40 13 44 34 25 9
-9 12 -9 7 -1 -3 6 5 53 18 105 14 51 25 88 26 82 0 -5 7 -19 15 -30 14 -17
15 -15 9 31 -4 28 -11 60 -15 73 -6 15 -5 21 1 17 14 -9 12 5 -5 35 -21 37
-18 49 6 20 22 -27 22 -32 -1 58 -15 60 -81 124 -149 147 -29 9 -54 15 -56 13
-2 -2 23 -21 55 -42 58 -38 76 -61 29 -35 -19 10 -16 3 15 -40 21 -28 36 -51
33 -51 -2 0 -69 43 -148 96 -166 111 -182 119 -209 101 -37 -22 -39 -19 165
-201 38 -34 39 -35 15 -36 -60 0 -194 104 -259 201 -23 34 -41 56 -41 50 0
-18 28 -70 67 -124 19 -27 33 -51 30 -53 -6 -6 -42 35 -82 96 -32 48 -36 51
-32 25 3 -16 9 -39 13 -50 11 -30 -10 -7 -36 40 l-22 40 6 -64 c7 -70 -2 -74
-21 -8 l-11 42 -1 -55 -1 -55 -34 70 c-19 39 -49 84 -67 100 l-32 30 6 -37z"/>
<path d="M386 1335 c-9 -26 -7 -32 5 -12 6 10 9 21 6 23 -2 3 -7 -2 -11 -11z"/>
<path d="M634 1094 c-18 -14 -18 -14 6 -3 l25 12 -23 -25 c-18 -20 -21 -30
-14 -49 9 -24 10 -24 24 11 9 20 23 43 32 53 16 16 16 17 -6 17 -13 0 -33 -7
-44 -16z"/>
<path d="M400 1074 c0 -5 7 -29 16 -53 14 -41 13 -61 -2 -114 -5 -15 -1 -18
22 -15 32 4 61 40 69 89 5 29 2 41 -17 62 -22 26 -88 49 -88 31z"/>
<path d="M533 1009 c0 -33 2 -47 8 -38 11 18 12 89 1 89 -5 0 -9 -23 -9 -51z"/>
<path d="M701 1041 c-14 -4 -26 -12 -27 -19 -1 -7 0 -8 3 -2 8 16 23 12 17 -5
-4 -11 0 -15 16 -15 17 0 21 4 17 19 -3 15 1 21 17 24 19 4 19 4 1 5 -11 0
-31 -3 -44 -7z"/>
<path d="M800 1031 c0 -10 30 -24 37 -17 3 2 -5 9 -16 16 -12 6 -21 7 -21 1z"/>
<path d="M1195 954 c-12 -13 -13 -20 -5 -28 8 -8 15 -6 25 7 12 16 14 13 26
-33 13 -52 29 -51 29 3 0 60 -39 87 -75 51z"/>
<path d="M1165 890 c-4 -11 -9 -18 -13 -16 -4 2 -8 -12 -9 -31 -1 -29 1 -33
15 -28 9 4 26 8 37 10 11 1 23 3 28 4 4 0 7 12 7 26 0 17 -9 29 -29 40 -28 14
-30 14 -36 -5z"/>
<path d="M470 880 c-8 -5 -28 -10 -44 -10 -28 0 -28 0 -21 -47 10 -68 40 -142
85 -212 22 -33 47 -75 56 -93 10 -19 19 -28 22 -20 2 7 -13 47 -34 88 l-39 75
23 39 c28 50 28 58 -4 83 -23 18 -26 25 -20 64 6 44 2 50 -24 33z"/>
<path d="M638 850 c6 -8 12 -26 12 -40 0 -14 -6 -32 -12 -40 -11 -12 -10 -12
5 -1 9 7 17 26 17 41 0 15 -8 34 -17 41 -15 11 -16 11 -5 -1z"/>
<path d="M570 785 c0 -8 9 -15 20 -15 11 0 20 7 20 15 0 8 -9 15 -20 15 -11 0
-20 -7 -20 -15z"/>
<path d="M560 624 c0 -33 61 -144 79 -144 25 0 41 20 41 53 0 22 -11 39 -42
68 -45 40 -78 50 -78 23z"/>
</g>
</svg>
